<svg xmlns="http://www.w3.org/2000/svg" viewBox="0 0 100 100" width="512" height="512" role="img" aria-label="Generated favicon" shape-rendering="geometricPrecision">
      <defs>
        <linearGradient id="bgGradient" x1="0%" y1="0%" x2="100%" y2="100%">
          <stop offset="0%" stop-color="#0000bf" />
          <stop offset="100%" stop-color="#a83bea" />
        </linearGradient>
        <linearGradient id="retroGradient" x1="0%" y1="0%" x2="100%" y2="100%">
          <stop offset="0%" stop-color="#0023d3" />
          <stop offset="100%" stop-color="#ca69ef" />
        </linearGradient>
        <linearGradient id="threeDGradient" x1="0%" y1="0%" x2="100%" y2="100%">
          <stop offset="0%" stop-color="#1818d7" />
          <stop offset="45%" stop-color="#0000bf" />
          <stop offset="100%" stop-color="#9629d8" />
        </linearGradient>
        <linearGradient id="threeDShadow" x1="0%" y1="0%" x2="0%" y2="100%">
          <stop offset="0%" stop-color="rgba(255, 255, 255, 0.12)" />
          <stop offset="100%" stop-color="rgba(0, 0, 0, 0.24)" />
        </linearGradient>
        <linearGradient id="shineGradient" x1="0%" y1="0%" x2="0%" y2="100%">
          <stop offset="0%" stop-color="rgba(255, 255, 255, 0.36)" />
          <stop offset="45%" stop-color="rgba(255, 255, 255, 0.08)" />
          <stop offset="100%" stop-color="rgba(255, 255, 255, 0)" />
        </linearGradient>
        <linearGradient id="glassGloss" x1="0%" y1="0%" x2="100%" y2="100%">
          <stop offset="0%" stop-color="rgba(255, 255, 255, 0.62)" />
          <stop offset="100%" stop-color="rgba(255, 255, 255, 0)" />
        </linearGradient>
        <pattern id="gridPattern" width="10" height="10" patternUnits="userSpaceOnUse">
          <rect width="10" height="10" fill="transparent" />
          <path d="M0 0 H10 M0 0 V10" stroke="rgba(255, 255, 255, 0.62)" stroke-width="0.7" />
        </pattern>
        <pattern id="dotsPattern" width="10" height="10" patternUnits="userSpaceOnUse">
          <circle cx="2" cy="2" r="1.2" fill="rgba(255, 255, 255, 0.9)" />
          <circle cx="8" cy="7" r="1.2" fill="rgba(255, 255, 255, 0.9)" />
        </pattern>
        <pattern id="diagonalPattern" width="12" height="12" patternUnits="userSpaceOnUse" patternTransform="rotate(18)">
          <path d="M0 0 L0 12" stroke="rgba(255, 255, 255, 0.75)" stroke-width="2" />
        </pattern>
        <pattern id="wavesPattern" width="18" height="18" patternUnits="userSpaceOnUse">
          <path d="M0 9 C3 3 6 3 9 9 C12 15 15 15 18 9" fill="none" stroke="rgba(255, 255, 255, 0.82)" stroke-width="1.2" />
        </pattern>
        <pattern id="checkerPattern" width="12" height="12" patternUnits="userSpaceOnUse">
          <rect width="6" height="6" fill="rgba(255, 255, 255, 0.92)" />
          <rect x="6" y="6" width="6" height="6" fill="rgba(255, 255, 255, 0.92)" />
        </pattern>
        <pattern id="noisePattern" width="18" height="18" patternUnits="userSpaceOnUse">
          <circle cx="2" cy="3" r="0.9" fill="rgba(255, 255, 255, 0.92)" />
          <circle cx="7" cy="11" r="0.8" fill="rgba(255, 255, 255, 0.72)" />
          <circle cx="12" cy="5" r="1" fill="rgba(255, 255, 255, 0.88)" />
          <circle cx="15" cy="13" r="0.9" fill="rgba(255, 255, 255, 0.7)" />
          <circle cx="4" cy="15" r="0.7" fill="rgba(255, 255, 255, 0.8)" />
        </pattern>
        <pattern id="pixelOverlayPattern" width="8" height="8" patternUnits="userSpaceOnUse">
          <rect x="0" y="0" width="4" height="4" fill="rgba(255, 255, 255, 0.08)" />
          <rect x="4" y="4" width="4" height="4" fill="rgba(255, 255, 255, 0.14)" />
          <rect x="0" y="4" width="2" height="2" fill="rgba(255, 255, 255, 0.16)" />
        </pattern>
        <clipPath id="shapeClip"><circle cx="50" cy="50" r="40"  /></clipPath>
        <clipPath id="imageClip"><rect x="19" y="19" width="62" height="62" rx="16" /></clipPath>
        <filter id="baseShadow" x="-30%" y="-30%" width="160%" height="160%">
          <feDropShadow dx="0" dy="3" stdDeviation="2.25" flood-color="rgba(0, 0, 191, 0.24)" />
        </filter>
        <filter id="softShadow" x="-30%" y="-30%" width="160%" height="160%">
          <feDropShadow dx="0" dy="2" stdDeviation="3" flood-color="rgba(0, 0, 191, 0.28)" />
        </filter>
        <filter id="deepShadow" x="-40%" y="-40%" width="180%" height="180%">
          <feDropShadow dx="0" dy="5" stdDeviation="4" flood-color="rgba(0, 0, 191, 0.34)" />
        </filter>
        <filter id="neonGlow" x="-50%" y="-50%" width="200%" height="200%">
          <feDropShadow dx="0" dy="0" stdDeviation="3" flood-color="rgba(168, 59, 234, 0.65)" />
          <feDropShadow dx="0" dy="0" stdDeviation="7" flood-color="rgba(168, 59, 234, 0.4)" />
        </filter>
        <filter id="foregroundGlow" x="-50%" y="-50%" width="200%" height="200%">
          <feDropShadow dx="0" dy="0" stdDeviation="2.3" flood-color="rgba(255, 255, 255, 0.78)" />
        </filter>
        <filter id="foregroundShadow" x="-40%" y="-40%" width="180%" height="180%">
          <feDropShadow dx="0" dy="1.5" stdDeviation="1.8" flood-color="rgba(2, 6, 23, 0.22)" />
        </filter>
      </defs>
      <rect width="100" height="100" fill="transparent" />
      <g filter="url(#softShadow)"><circle cx="50" cy="50" r="40" fill="url(#bgGradient)" /></g>
      <g clip-path="url(#shapeClip)"><circle cx="50" cy="50" r="40" fill="url(#gridPattern)" opacity="0.24" /></g>
      <g clip-path="url(#shapeClip)"><g clip-path="url(#shapeClip)"><ellipse cx="38" cy="26" rx="34" ry="20" fill="url(#glassGloss)" opacity="0.82" /><rect x="12" y="56" width="76" height="30" fill="rgba(255, 255, 255, 0.06)" /></g><circle cx="50" cy="50" r="40" fill="none" stroke="rgba(255, 255, 255, 0.28)" stroke-width="1.5" /></g>
      <circle cx="50" cy="50" r="40" fill="none" stroke="#c1c1c1" stroke-width="2" stroke-opacity="0.96" />
      <g filter="url(#foregroundShadow)"><text x="50" y="54" text-anchor="middle" dominant-baseline="middle" font-family="&#39;SFMono-Regular&#39;, Consolas, &#39;Liberation Mono&#39;, Menlo, monospace" font-size="22" font-weight="800" letter-spacing="-0.5" fill="#ffffff" stroke="rgba(2, 6, 23, 0.18)" stroke-width="0.5" paint-order="stroke">TYNX</text></g>
    </svg>